# xmcd
#
# Track frame offsets:
#	150
#	11925
#	23760
#	35438
#	50341
#	62491
#	74746
#	87279
#	101949
#	113342
#	124090
#	136203
#
# Disc length: 1993 seconds
#
# Revision: 0
# Processed by: cddbd v1.5.2PL0 Copyright (c) Steve Scherf et al.
# Submitted via: audiograbber 1.83.01
#
DISCID=a107c70c
DTITLE=Ernest Tubb - Just Call Me Lonesome
DYEAR=1963
DGENRE=Country
TTITLE0=I Told You So
TTITLE1=I Loved You Once
TTITLE2=Just An Old Faded Photograph
TTITLE3=Last Letter
TTITLE4=If You Call That Gone Goodbye
TTITLE5=How Can I Be Sure
TTITLE6=I'll Never Tell You I Love You
TTITLE7=Beyond The Last Mile
TTITLE8=Just Partners
TTITLE9=I Think I'll Give Up (It's All Over)
TTITLE10=I'm As Free As The Breeze
TTITLE11=Just Call Me Lonesome
EXTD=this is from my LP's that I have converted into CD's
EXTT0=
EXTT1=
EXTT2=
EXTT3=
EXTT4=
EXTT5=
EXTT6=
EXTT7=
EXTT8=
EXTT9=
EXTT10=
EXTT11=
PLAYORDER=
